<svg width="24" height="24" viewBox="0 0 24 24" fill="none" xmlns="http://www.w3.org/2000/svg">
<path d="M10.9695 1.89146C11.248 1.62815 11.6167 1.48145 12 1.48145C12.3833 1.48145 12.752 1.62815 13.0305 1.89146L20.2965 8.76146C20.7465 9.18596 21 9.77696 21 10.3965V18.75C21 19.3467 20.7629 19.919 20.341 20.3409C19.919 20.7629 19.3467 21 18.75 21H15.75C15.1533 21 14.581 20.7629 14.159 20.3409C13.7371 19.919 13.5 19.3467 13.5 18.75V15C13.5 14.801 13.421 14.6103 13.2803 14.4696C13.1397 14.329 12.9489 14.25 12.75 14.25H11.25C11.0511 14.25 10.8603 14.329 10.7197 14.4696C10.579 14.6103 10.5 14.801 10.5 15V18.75C10.5 19.3467 10.2629 19.919 9.84099 20.3409C9.41903 20.7629 8.84674 21 8.25 21H5.25C4.65326 21 4.08097 20.7629 3.65901 20.3409C3.23705 19.919 3 19.3467 3 18.75V10.395C3 9.77696 3.255 9.18596 3.705 8.75996L10.9695 1.89146ZM12 2.98196L4.734 9.85196C4.66024 9.92189 4.60146 10.0061 4.56123 10.0994C4.52101 10.1928 4.50017 10.2933 4.5 10.395V18.75C4.5 18.9489 4.57902 19.1396 4.71967 19.2803C4.86032 19.4209 5.05109 19.5 5.25 19.5H8.25C8.44891 19.5 8.63968 19.4209 8.78033 19.2803C8.92098 19.1396 9 18.9489 9 18.75V15C9 14.4032 9.23705 13.8309 9.65901 13.409C10.081 12.987 10.6533 12.75 11.25 12.75H12.75C13.3467 12.75 13.919 12.987 14.341 13.409C14.7629 13.8309 15 14.4032 15 15V18.75C15 18.9489 15.079 19.1396 15.2197 19.2803C15.3603 19.4209 15.5511 19.5 15.75 19.5H18.75C18.9489 19.5 19.1397 19.4209 19.2803 19.2803C19.421 19.1396 19.5 18.9489 19.5 18.75V10.395C19.5 10.2931 19.4793 10.1922 19.4391 10.0986C19.3988 10.005 19.3399 9.92056 19.266 9.85046L12 2.98196Z" fill="#B2B2B2"/>
</svg>
